<?xml version="1.0" standalone="no"?>
<!DOCTYPE svg PUBLIC "-//W3C//DTD SVG 20010904//EN"
 "http://www.w3.org/TR/2001/REC-SVG-20010904/DTD/svg10.dtd">
<svg version="1.0" xmlns="http://www.w3.org/2000/svg"
 width="1024.000000pt" height="1024.000000pt" viewBox="0 0 1024.000000 1024.000000"
 preserveAspectRatio="xMidYMid meet">
<metadata>
Created by potrace 1.14, written by Peter Selinger 2001-2017
</metadata>
<g transform="translate(0.000000,1024.000000) scale(0.100000,-0.100000)"
fill="#000000" stroke="none">
<path d="M4850 10135 c0 -6 -30 -11 -68 -11 -37 -1 -94 -5 -127 -8 -33 -4 -78
-9 -100 -11 -22 -2 -58 -7 -80 -10 -68 -10 -109 -16 -145 -20 -19 -3 -46 -7
-60 -11 -14 -3 -38 -7 -55 -9 -16 -3 -41 -7 -55 -10 -14 -3 -36 -8 -50 -11
-14 -2 -36 -7 -50 -10 -14 -3 -36 -8 -50 -11 -42 -8 -55 -11 -55 -13 0 -2 -7
-3 -55 -13 -14 -3 -56 -15 -95 -25 -38 -11 -106 -30 -150 -43 -44 -12 -83 -27
-87 -33 -4 -6 -8 -8 -8 -4 0 8 -133 -37 -287 -98 -61 -24 -116 -44 -122 -44
-6 0 -11 -4 -11 -10 0 -5 -5 -10 -11 -10 -5 0 -30 -9 -55 -20 -55 -25 -86 -38
-98 -38 -5 0 -12 -4 -15 -9 -3 -4 -52 -31 -108 -58 -57 -27 -103 -53 -103 -58
0 -4 -4 -5 -10 -2 -5 3 -10 2 -10 -3 0 -5 -17 -16 -37 -25 -38 -16 -134 -67
-143 -77 -8 -8 -89 -60 -94 -60 -4 0 -103 -63 -121 -77 -5 -4 -30 -21 -54 -37
-25 -16 -50 -33 -55 -38 -6 -5 -49 -36 -96 -70 -46 -34 -90 -66 -97 -72 -7 -6
-24 -20 -39 -31 -14 -11 -31 -25 -37 -30 -7 -6 -39 -33 -72 -60 -93 -78 -116
-99 -299 -280 -150 -149 -217 -221 -296 -315 -12 -14 -29 -34 -38 -45 -9 -11
-45 -56 -80 -100 -35 -44 -70 -88 -78 -98 -8 -9 -14 -22 -14 -27 0 -6 -4 -10
-10 -10 -5 0 -10 -6 -10 -14 0 -8 -7 -17 -16 -20 -8 -3 -12 -10 -9 -16 3 -5 2
-10 -3 -10 -6 0 -25 -24 -43 -52 -19 -29 -37 -54 -41 -56 -5 -2 -8 -8 -8 -13
0 -11 -40 -70 -55 -81 -7 -5 -7 -8 0 -8 6 0 5 -3 -1 -8 -12 -8 -142 -225 -170
-284 -10 -21 -22 -38 -26 -38 -5 0 -7 -4 -3 -9 3 -5 -2 -16 -10 -25 -9 -8 -16
-19 -17 -23 0 -4 -20 -48 -45 -98 -51 -104 -121 -264 -176 -405 -45 -114 -148
-432 -149 -460 0 -3 -5 -16 -10 -30 -5 -14 -11 -32 -13 -40 -2 -8 -8 -33 -13
-55 -6 -22 -13 -53 -16 -70 -3 -16 -12 -59 -21 -95 -8 -36 -17 -74 -19 -85 -2
-11 -6 -33 -9 -50 -3 -16 -8 -48 -12 -70 -3 -23 -8 -52 -11 -65 -7 -38 -17
-112 -18 -137 0 -13 -2 -23 -5 -23 -4 0 -7 -19 -8 -43 -3 -77 -9 -153 -14
-163 -3 -5 -5 -50 -4 -100 0 -51 -3 -90 -8 -87 -4 2 -6 -104 -6 -236 1 -149 6
-241 12 -241 5 0 4 -7 -3 -15 -7 -8 -9 -15 -4 -15 5 0 9 -21 10 -48 1 -45 11
-175 19 -237 10 -83 16 -132 21 -155 2 -14 7 -45 10 -70 4 -38 63 -334 79
-395 3 -11 7 -29 10 -40 6 -28 20 -79 40 -150 10 -33 17 -66 18 -72 0 -7 5
-13 10 -13 6 0 8 -3 5 -6 -4 -3 10 -51 29 -107 19 -56 36 -106 37 -112 2 -5 8
-23 14 -38 7 -16 12 -31 12 -34 0 -3 6 -19 14 -36 7 -18 26 -63 41 -102 16
-38 39 -93 52 -122 13 -28 23 -56 23 -61 0 -5 7 -15 15 -22 8 -7 13 -15 10
-19 -2 -4 5 -22 16 -39 10 -18 19 -39 19 -46 0 -8 3 -16 8 -18 4 -1 32 -52 62
-113 30 -60 59 -114 63 -120 4 -5 39 -64 78 -130 63 -106 204 -322 220 -335 3
-3 21 -27 39 -55 19 -27 39 -55 45 -61 5 -6 21 -26 35 -44 14 -18 32 -41 40
-51 8 -9 26 -32 40 -49 71 -90 154 -182 265 -297 56 -57 99 -106 96 -108 -2
-3 0 -5 5 -5 6 0 40 -28 76 -62 84 -81 170 -158 174 -158 5 0 48 -37 78 -65
36 -35 236 -185 246 -185 6 0 10 -5 10 -10 0 -6 8 -14 18 -17 9 -4 22 -12 29
-17 25 -22 39 -31 66 -45 15 -8 27 -18 27 -21 0 -4 14 -13 30 -20 17 -7 30
-16 30 -21 0 -5 4 -9 10 -9 5 0 41 -20 80 -45 39 -25 74 -45 79 -45 5 0 11 -3
13 -7 2 -5 23 -19 48 -32 25 -14 47 -27 50 -31 6 -7 400 -204 412 -206 4 -1
10 -3 13 -4 3 -1 8 -3 13 -4 4 -1 27 -11 52 -23 55 -26 199 -82 300 -117 41
-15 82 -29 90 -33 8 -3 22 -7 30 -8 8 -1 35 -9 60 -18 46 -16 246 -72 290 -81
14 -3 63 -14 110 -25 47 -10 99 -21 115 -24 17 -3 39 -8 50 -10 11 -3 40 -8
65 -12 62 -9 91 -14 115 -19 11 -2 47 -7 80 -10 33 -4 78 -10 100 -13 22 -3
68 -6 102 -7 35 0 63 -3 63 -6 0 -14 589 -20 725 -7 39 4 97 9 130 12 59 5 85
8 175 20 25 3 66 7 93 10 26 2 50 6 55 8 4 3 29 8 56 11 27 4 52 9 55 11 3 1
24 6 46 9 78 13 101 17 200 42 146 35 239 61 335 91 47 15 87 28 90 28 21 3
148 50 158 58 6 5 12 7 12 4 0 -3 19 2 43 12 59 26 81 34 89 35 3 1 10 4 14 8
4 5 16 8 26 8 10 0 18 4 18 8 0 5 6 9 13 9 6 0 35 11 62 23 28 13 53 23 58 22
4 -1 7 2 7 8 0 5 6 10 13 10 7 0 61 24 120 54 59 29 107 51 107 47 0 -3 4 -1
8 4 4 6 34 24 67 40 33 17 62 33 65 36 3 3 32 20 65 38 32 18 71 41 86 52 15
10 29 19 32 19 9 0 192 123 195 132 2 4 8 6 13 2 5 -3 9 0 9 5 0 6 6 11 14 11
8 0 16 3 18 8 4 9 74 62 83 62 3 0 16 10 29 22 13 13 33 30 46 38 51 34 110
83 110 91 0 5 6 9 14 9 7 0 28 16 47 35 19 19 37 35 41 35 4 0 25 18 48 41 22
22 40 39 40 36 0 -8 226 212 315 306 81 85 119 129 224 256 20 24 42 50 49 57
6 7 12 17 12 23 0 6 3 11 8 11 4 1 25 26 47 56 22 30 55 73 73 96 17 22 32 43
32 47 0 4 8 16 18 27 10 10 29 37 42 59 13 22 27 42 30 45 13 11 70 108 70
118 0 7 4 12 8 12 5 0 17 17 28 38 33 60 49 87 55 92 3 3 43 77 89 165 45 88
85 165 88 170 4 6 7 15 8 20 1 6 18 44 37 85 19 41 47 104 62 140 14 36 30 74
35 85 5 11 12 31 16 44 3 13 13 40 22 60 9 20 17 44 19 54 2 10 10 31 18 47 8
16 15 38 15 50 0 11 5 20 10 20 6 0 9 3 8 8 -3 15 15 82 23 88 5 3 7 10 3 15
-3 5 0 16 6 24 7 8 9 15 5 15 -4 0 -2 7 5 15 7 8 10 15 6 15 -3 0 -1 11 4 25
5 14 12 36 15 48 2 12 9 40 15 62 6 22 13 51 16 65 3 14 7 33 10 42 3 9 7 26
9 37 3 12 7 31 10 43 3 13 9 48 15 78 12 64 18 95 25 130 4 23 7 41 20 140 3
19 7 44 10 56 2 11 7 50 10 86 3 36 8 83 10 104 15 139 19 239 19 469 1 143
-3 296 -8 340 -8 79 -12 124 -20 220 -3 28 -7 61 -10 75 -3 14 -8 44 -10 65
-6 59 -30 201 -42 255 -3 14 -7 39 -10 55 -10 59 -99 407 -111 435 -3 8 -7 17
-7 20 -8 34 -31 107 -36 115 -4 6 -10 22 -14 37 -3 15 -11 40 -18 55 -6 15
-12 30 -12 33 -1 3 -6 19 -13 35 -6 17 -21 57 -33 90 -13 33 -36 88 -51 123
-16 35 -29 66 -29 69 0 10 -163 338 -186 374 -13 20 -20 40 -17 43 4 3 1 6 -5
6 -7 0 -12 4 -12 10 0 12 -122 214 -132 218 -5 2 -8 8 -8 13 0 10 -123 194
-159 239 -11 14 -21 31 -21 38 0 6 -4 12 -8 12 -5 0 -24 21 -43 48 -43 60 -59
80 -86 109 -13 13 -23 26 -23 29 0 9 -106 131 -237 272 -24 26 -43 51 -43 56
0 5 -2 7 -5 4 -6 -6 -155 142 -155 154 0 4 -6 8 -13 8 -7 0 -20 8 -28 18 -27
29 -111 105 -163 147 -28 22 -61 50 -74 62 -43 39 -291 223 -301 223 -5 0 -11
4 -13 8 -4 11 -186 132 -199 132 -5 0 -9 5 -9 10 0 6 -4 10 -10 10 -5 0 -33
15 -62 34 -175 110 -506 273 -738 362 -63 24 -123 48 -132 54 -10 5 -24 10
-33 10 -8 0 -29 7 -47 14 -32 14 -187 65 -218 71 -8 2 -15 4 -15 5 0 1 -7 3
-15 5 -8 1 -49 12 -90 23 -73 19 -227 56 -282 67 -16 3 -39 7 -53 10 -43 9
-79 15 -115 21 -19 3 -46 7 -60 10 -14 3 -41 7 -60 9 -67 8 -105 14 -105 15 0
1 -80 9 -150 14 -27 3 -50 5 -50 6 0 6 -135 11 -382 15 -214 3 -283 1 -283 -8
0 -7 -4 -6 -10 3 -5 8 -10 11 -10 5z"/>
</g>
</svg>
